<?xml version="1.0" encoding="utf-8"?>
<!-- Generator: Adobe Illustrator 24.0.2, SVG Export Plug-In . SVG Version: 6.00 Build 0)  -->
<svg version="1.1" id="Ebene_1" xmlns="http://www.w3.org/2000/svg" xmlns:xlink="http://www.w3.org/1999/xlink" x="0px" y="0px"
	 viewBox="0 0 165.35 41.88" style="enable-background:new 0 0 165.35 41.88;" xml:space="preserve">
<style type="text/css">
	.st0{fill:#E1001A;}
	.st1{fill:#004F9F;}
</style>
<g>
	<g>
		<path class="st0" d="M165.26,38.45h-0.06c-0.09,0.03-0.22,0.08-0.41,0.13c-0.19,0.05-0.37,0.08-0.55,0.08
			c-0.3,0-0.52-0.03-0.67-0.11c-0.15-0.07-0.26-0.18-0.34-0.33c-0.09-0.16-0.15-0.34-0.16-0.53c-0.01-0.19-0.03-0.45-0.03-0.78V34
			h2.21v-0.9h-2.21v-1.83h-1.07v1.83h-0.72V34h0.72v3.39c0,0.77,0.17,1.33,0.51,1.68c0.34,0.35,0.83,0.52,1.48,0.52
			c0.19,0,0.4-0.02,0.64-0.05c0.24-0.03,0.46-0.08,0.66-0.13 M161.51,30.66c-0.16-0.03-0.34-0.06-0.53-0.08
			c-0.19-0.02-0.41-0.04-0.65-0.04c-0.71,0-1.25,0.2-1.63,0.61c-0.38,0.4-0.57,0.98-0.57,1.74v0.21h-0.73V34h0.73v5.46h1.07V34h1.9
			v-0.9h-1.93v-0.22c0-0.53,0.1-0.9,0.31-1.1c0.21-0.2,0.54-0.31,1-0.31c0.15,0,0.31,0.02,0.5,0.05c0.19,0.04,0.34,0.07,0.46,0.11
			h0.06V30.66z M154.32,38.43c-0.31,0.15-0.65,0.22-1.03,0.22c-0.45,0-0.79-0.09-1.01-0.28c-0.22-0.19-0.33-0.46-0.33-0.82
			c0-0.33,0.09-0.58,0.29-0.76c0.19-0.18,0.44-0.32,0.74-0.41c0.26-0.07,0.61-0.13,1.05-0.17c0.44-0.04,0.83-0.07,1.15-0.09v1.77
			C154.93,38.11,154.64,38.28,154.32,38.43 M156.26,35.15c0-0.41-0.07-0.75-0.19-1.03c-0.12-0.28-0.31-0.5-0.55-0.68
			c-0.24-0.18-0.53-0.3-0.86-0.38c-0.33-0.08-0.72-0.11-1.17-0.11c-0.38,0-0.78,0.03-1.17,0.1c-0.4,0.07-0.7,0.13-0.91,0.19v1.09
			h0.06c0.37-0.14,0.73-0.25,1.07-0.32c0.35-0.08,0.66-0.11,0.94-0.11c0.23,0,0.45,0.02,0.66,0.04c0.22,0.03,0.4,0.09,0.55,0.18
			c0.16,0.09,0.28,0.22,0.37,0.37c0.08,0.16,0.13,0.36,0.13,0.61v0.16c-0.62,0.03-1.21,0.08-1.75,0.14
			c-0.54,0.06-1.01,0.18-1.4,0.35c-0.39,0.17-0.68,0.4-0.89,0.7c-0.2,0.3-0.31,0.69-0.31,1.17c0,0.59,0.2,1.07,0.6,1.45
			c0.39,0.38,0.88,0.57,1.46,0.57c0.31,0,0.58-0.03,0.81-0.09c0.23-0.06,0.44-0.13,0.62-0.22c0.15-0.07,0.31-0.16,0.47-0.28
			c0.16-0.11,0.29-0.21,0.39-0.27v0.68h1.07V35.15z M149.49,35.34c0-0.78-0.18-1.37-0.54-1.79c-0.36-0.41-0.88-0.62-1.57-0.62
			c-0.38,0-0.74,0.08-1.1,0.23c-0.36,0.15-0.7,0.37-1.04,0.65V30.6h-1.07v8.86h1.07v-4.75c0.29-0.23,0.6-0.41,0.92-0.55
			c0.32-0.15,0.63-0.22,0.92-0.22c0.29,0,0.51,0.04,0.69,0.12c0.18,0.08,0.32,0.2,0.41,0.36c0.09,0.15,0.15,0.34,0.18,0.6
			s0.05,0.53,0.05,0.82v3.62h1.07V35.34z M143.03,37.89h-0.06c-0.08,0.07-0.19,0.14-0.33,0.23c-0.14,0.09-0.28,0.17-0.44,0.25
			c-0.18,0.09-0.38,0.17-0.6,0.22c-0.23,0.06-0.45,0.08-0.66,0.08c-0.62,0-1.11-0.21-1.45-0.62c-0.34-0.41-0.52-1-0.52-1.77
			c0-0.79,0.18-1.39,0.53-1.8c0.35-0.41,0.83-0.61,1.44-0.61c0.33,0,0.67,0.07,1.02,0.21c0.35,0.14,0.68,0.33,1.01,0.59h0.06v-1.19
			c-0.29-0.15-0.62-0.27-0.97-0.38c-0.35-0.1-0.71-0.15-1.07-0.15c-0.94,0-1.69,0.3-2.27,0.89c-0.57,0.59-0.86,1.41-0.86,2.45
			c0,0.56,0.07,1.05,0.23,1.46c0.15,0.42,0.36,0.76,0.64,1.04c0.27,0.27,0.6,0.48,0.99,0.61c0.38,0.13,0.8,0.2,1.26,0.2
			c0.36,0,0.7-0.05,1.02-0.14c0.32-0.09,0.66-0.23,1.02-0.4V37.89z M136.61,36.52c-0.27-0.28-0.65-0.47-1.15-0.59
			c-0.16-0.04-0.37-0.08-0.61-0.13c-0.24-0.05-0.46-0.09-0.66-0.14c-0.36-0.08-0.62-0.19-0.78-0.32c-0.16-0.13-0.24-0.33-0.24-0.59
			c0-0.3,0.13-0.52,0.4-0.67c0.27-0.15,0.6-0.22,0.99-0.22c0.38,0,0.76,0.07,1.15,0.21c0.4,0.14,0.73,0.31,1,0.51h0.06v-1.15
			c-0.26-0.13-0.58-0.25-0.97-0.34c-0.39-0.09-0.78-0.14-1.16-0.14c-0.41,0-0.78,0.05-1.1,0.16c-0.33,0.1-0.6,0.25-0.81,0.42
			c-0.22,0.18-0.38,0.39-0.49,0.62c-0.11,0.23-0.16,0.48-0.16,0.74c0,0.42,0.12,0.77,0.35,1.06c0.23,0.29,0.63,0.5,1.19,0.65
			c0.2,0.05,0.42,0.1,0.67,0.15c0.24,0.05,0.44,0.09,0.59,0.12c0.41,0.09,0.69,0.2,0.83,0.33c0.14,0.13,0.22,0.32,0.22,0.57
			c0,0.33-0.13,0.57-0.4,0.72c-0.27,0.15-0.64,0.23-1.11,0.23c-0.38,0-0.77-0.07-1.19-0.22c-0.42-0.15-0.79-0.35-1.13-0.61h-0.05
			v1.2c0.26,0.13,0.59,0.26,0.99,0.37s0.83,0.17,1.3,0.17c0.83,0,1.48-0.19,1.97-0.56c0.48-0.37,0.72-0.85,0.72-1.43
			C137.02,37.17,136.88,36.8,136.61,36.52 M130.64,35.34c0-0.78-0.18-1.37-0.54-1.79c-0.36-0.41-0.88-0.62-1.57-0.62
			c-0.37,0-0.74,0.08-1.1,0.23c-0.36,0.15-0.7,0.37-1.04,0.65v-0.71h-1.07v6.36h1.07v-4.75c0.29-0.23,0.6-0.41,0.92-0.55
			c0.32-0.15,0.63-0.22,0.92-0.22c0.28,0,0.52,0.04,0.7,0.12c0.18,0.08,0.31,0.2,0.41,0.36c0.09,0.15,0.15,0.34,0.19,0.6
			c0.03,0.26,0.05,0.53,0.05,0.82v3.62h1.07V35.34z M119.25,35.58c0.04-0.5,0.24-0.92,0.58-1.26c0.34-0.34,0.8-0.51,1.37-0.51
			c0.57,0,1,0.15,1.27,0.46c0.28,0.31,0.42,0.74,0.43,1.3H119.25z M123.93,35.82c0-0.92-0.23-1.64-0.7-2.14
			c-0.46-0.5-1.13-0.75-1.99-0.75c-0.93,0-1.67,0.3-2.24,0.92c-0.57,0.61-0.85,1.44-0.85,2.48c0,1.05,0.3,1.86,0.89,2.44
			c0.59,0.57,1.41,0.86,2.47,0.86c0.41,0,0.81-0.05,1.18-0.15c0.38-0.1,0.74-0.23,1.11-0.38v-1.17h-0.06
			c-0.19,0.17-0.5,0.34-0.94,0.51c-0.44,0.17-0.87,0.26-1.31,0.26c-0.33,0-0.62-0.04-0.9-0.14s-0.51-0.23-0.7-0.41
			c-0.2-0.18-0.37-0.42-0.48-0.71c-0.12-0.29-0.18-0.63-0.18-1.02h4.69V35.82z M116.91,36.52c-0.28-0.28-0.66-0.47-1.15-0.59
			c-0.16-0.04-0.36-0.08-0.61-0.13c-0.24-0.05-0.47-0.09-0.66-0.14c-0.36-0.08-0.62-0.19-0.78-0.32c-0.16-0.13-0.25-0.33-0.25-0.59
			c0-0.3,0.14-0.52,0.41-0.67c0.27-0.15,0.6-0.22,0.99-0.22c0.38,0,0.76,0.07,1.15,0.21c0.39,0.14,0.72,0.31,1,0.51h0.06v-1.15
			c-0.26-0.13-0.58-0.25-0.97-0.34c-0.39-0.09-0.77-0.14-1.15-0.14c-0.41,0-0.77,0.05-1.1,0.16c-0.33,0.1-0.6,0.25-0.81,0.42
			c-0.22,0.18-0.39,0.39-0.49,0.62c-0.11,0.23-0.17,0.48-0.17,0.74c0,0.42,0.12,0.77,0.35,1.06c0.23,0.29,0.63,0.5,1.19,0.65
			c0.2,0.05,0.43,0.1,0.67,0.15c0.24,0.05,0.44,0.09,0.59,0.12c0.41,0.09,0.69,0.2,0.83,0.33c0.14,0.13,0.22,0.32,0.22,0.57
			c0,0.33-0.13,0.57-0.4,0.72c-0.27,0.15-0.64,0.23-1.11,0.23c-0.38,0-0.78-0.07-1.19-0.22c-0.41-0.15-0.79-0.35-1.13-0.61h-0.06
			v1.2c0.27,0.13,0.59,0.26,0.99,0.37c0.39,0.11,0.83,0.17,1.3,0.17c0.83,0,1.49-0.19,1.97-0.56c0.48-0.37,0.72-0.85,0.72-1.43
			C117.31,37.17,117.17,36.8,116.91,36.52 M111.06,36.52c-0.27-0.28-0.65-0.47-1.15-0.59c-0.16-0.04-0.37-0.08-0.61-0.13
			c-0.25-0.05-0.46-0.09-0.66-0.14c-0.36-0.08-0.61-0.19-0.77-0.32c-0.16-0.13-0.25-0.33-0.25-0.59c0-0.3,0.14-0.52,0.41-0.67
			c0.27-0.15,0.6-0.22,0.99-0.22c0.37,0,0.76,0.07,1.15,0.21c0.39,0.14,0.72,0.31,0.99,0.51h0.06v-1.15
			c-0.26-0.13-0.58-0.25-0.97-0.34c-0.39-0.09-0.78-0.14-1.15-0.14c-0.41,0-0.78,0.05-1.1,0.16c-0.33,0.1-0.6,0.25-0.81,0.42
			c-0.22,0.18-0.39,0.39-0.49,0.62c-0.11,0.23-0.16,0.48-0.16,0.74c0,0.42,0.12,0.77,0.35,1.06c0.23,0.29,0.63,0.5,1.19,0.65
			c0.2,0.05,0.42,0.1,0.67,0.15c0.25,0.05,0.45,0.09,0.6,0.12c0.41,0.09,0.69,0.2,0.83,0.33c0.15,0.13,0.22,0.32,0.22,0.57
			c0,0.33-0.13,0.57-0.4,0.72c-0.26,0.15-0.63,0.23-1.1,0.23c-0.38,0-0.78-0.07-1.19-0.22c-0.41-0.15-0.79-0.35-1.13-0.61h-0.06v1.2
			c0.26,0.13,0.59,0.26,0.99,0.37c0.39,0.11,0.82,0.17,1.3,0.17c0.83,0,1.49-0.19,1.97-0.56c0.48-0.37,0.72-0.85,0.72-1.43
			C111.46,37.17,111.33,36.8,111.06,36.52 M103.9,38.11c-0.32,0.41-0.77,0.61-1.34,0.61c-0.58,0-1.03-0.21-1.35-0.62
			c-0.32-0.41-0.49-1.02-0.49-1.82c0-0.82,0.16-1.43,0.48-1.84c0.32-0.4,0.77-0.6,1.35-0.6c0.57,0,1.02,0.2,1.34,0.6
			c0.32,0.4,0.48,1.01,0.48,1.84C104.39,37.1,104.22,37.7,103.9,38.11 M104.69,33.83c-0.53-0.6-1.24-0.9-2.13-0.9
			c-0.9,0-1.61,0.3-2.15,0.9c-0.53,0.6-0.8,1.42-0.8,2.46c0,1.04,0.27,1.86,0.8,2.46c0.53,0.6,1.24,0.9,2.15,0.9
			c0.89,0,1.61-0.3,2.13-0.9c0.54-0.6,0.8-1.42,0.8-2.46C105.49,35.25,105.23,34.43,104.69,33.83 M98.24,35.34
			c0-0.78-0.18-1.37-0.54-1.79c-0.36-0.41-0.88-0.62-1.57-0.62c-0.37,0-0.74,0.08-1.1,0.23c-0.36,0.15-0.7,0.37-1.03,0.65v-0.71
			h-1.07v6.36h1.07v-4.75c0.29-0.23,0.6-0.41,0.92-0.55c0.32-0.15,0.62-0.22,0.92-0.22c0.29,0,0.52,0.04,0.7,0.12
			c0.18,0.08,0.31,0.2,0.41,0.36c0.09,0.15,0.15,0.34,0.19,0.6c0.03,0.26,0.05,0.53,0.05,0.82v3.62h1.07V35.34z M86.84,35.58
			c0.04-0.5,0.24-0.92,0.58-1.26c0.34-0.34,0.8-0.51,1.37-0.51c0.57,0,0.99,0.15,1.27,0.46c0.28,0.31,0.42,0.74,0.42,1.3H86.84z
			 M91.53,35.82c0-0.92-0.23-1.64-0.7-2.14c-0.47-0.5-1.13-0.75-1.99-0.75c-0.93,0-1.67,0.3-2.24,0.92
			c-0.57,0.61-0.85,1.44-0.85,2.48c0,1.05,0.3,1.86,0.89,2.44c0.59,0.57,1.42,0.86,2.47,0.86c0.42,0,0.81-0.05,1.19-0.15
			c0.37-0.1,0.74-0.23,1.1-0.38v-1.17h-0.06c-0.19,0.17-0.49,0.34-0.93,0.51c-0.44,0.17-0.88,0.26-1.31,0.26
			c-0.33,0-0.63-0.04-0.89-0.14c-0.27-0.09-0.51-0.23-0.71-0.41c-0.2-0.18-0.37-0.42-0.48-0.71c-0.12-0.29-0.18-0.63-0.18-1.02h4.69
			V35.82z M82.39,38.2c-0.31,0.12-0.62,0.18-0.94,0.18c-0.58,0-0.99-0.18-1.25-0.55c-0.25-0.37-0.37-0.91-0.37-1.62
			c0-0.75,0.17-1.33,0.51-1.72c0.34-0.4,0.8-0.59,1.39-0.59c0.24,0,0.48,0.03,0.73,0.08c0.24,0.06,0.51,0.15,0.79,0.27v3.47
			C83,37.92,82.71,38.08,82.39,38.2 M84.33,33.11h-1.01l-0.07,0.27c-0.27-0.15-0.54-0.27-0.79-0.34c-0.25-0.07-0.56-0.11-0.93-0.11
			c-0.35,0-0.7,0.07-1.06,0.22c-0.35,0.15-0.65,0.36-0.9,0.63c-0.27,0.29-0.48,0.63-0.63,1.03c-0.15,0.4-0.23,0.87-0.23,1.42
			c0,1,0.22,1.77,0.67,2.32c0.45,0.55,1.05,0.82,1.81,0.82c0.46,0,0.83-0.07,1.12-0.19c0.29-0.13,0.6-0.32,0.92-0.58v0.58
			c0,0.26-0.02,0.49-0.08,0.7c-0.06,0.21-0.15,0.39-0.28,0.54c-0.13,0.15-0.32,0.28-0.56,0.36c-0.24,0.09-0.54,0.13-0.91,0.13
			c-0.38,0-0.76-0.05-1.14-0.15c-0.38-0.1-0.66-0.18-0.83-0.25H79.4v1.09c0.31,0.09,0.62,0.15,0.95,0.2
			c0.32,0.05,0.65,0.07,0.99,0.07c1.02,0,1.77-0.25,2.26-0.76c0.5-0.5,0.74-1.3,0.74-2.37V33.11z M78.39,33.17
			c-0.17-0.03-0.29-0.05-0.38-0.05c-0.08-0.01-0.22-0.01-0.4-0.01c-0.34,0-0.67,0.07-1,0.21c-0.32,0.14-0.7,0.38-1.12,0.73v-0.94
			h-1.07v6.36h1.07v-4.52c0.28-0.23,0.58-0.42,0.89-0.57c0.31-0.15,0.63-0.22,0.96-0.22c0.2,0,0.38,0.01,0.53,0.03
			c0.15,0.02,0.31,0.04,0.47,0.08h0.06V33.17z M68.34,35.58c0.05-0.5,0.24-0.92,0.58-1.26c0.34-0.34,0.79-0.51,1.37-0.51
			c0.57,0,0.99,0.15,1.27,0.46c0.28,0.31,0.42,0.74,0.42,1.3H68.34z M73.03,35.82c0-0.92-0.23-1.64-0.7-2.14
			c-0.46-0.5-1.13-0.75-1.99-0.75c-0.92,0-1.67,0.3-2.24,0.92c-0.57,0.61-0.85,1.44-0.85,2.48c0,1.05,0.3,1.86,0.89,2.44
			c0.59,0.57,1.42,0.86,2.47,0.86c0.41,0,0.81-0.05,1.18-0.15c0.38-0.1,0.74-0.23,1.11-0.38v-1.17h-0.06
			c-0.19,0.17-0.5,0.34-0.94,0.51c-0.44,0.17-0.88,0.26-1.31,0.26c-0.33,0-0.62-0.04-0.9-0.14c-0.27-0.09-0.5-0.23-0.7-0.41
			c-0.2-0.18-0.37-0.42-0.48-0.71c-0.12-0.29-0.18-0.63-0.18-1.02h4.69V35.82z M63.75,36.04l2.95-2.94h-1.35l-3.09,3.18V30.6h-1.07
			v8.86h1.07v-2.12l0.69-0.66l2.55,2.79h1.41L63.75,36.04z M55.07,35.58c0.04-0.5,0.24-0.92,0.58-1.26c0.34-0.34,0.8-0.51,1.37-0.51
			s1,0.15,1.27,0.46c0.28,0.31,0.42,0.74,0.43,1.3H55.07z M59.76,35.82c0-0.92-0.23-1.64-0.7-2.14c-0.46-0.5-1.13-0.75-1.99-0.75
			c-0.93,0-1.67,0.3-2.24,0.92c-0.57,0.61-0.85,1.44-0.85,2.48c0,1.05,0.3,1.86,0.89,2.44c0.59,0.57,1.42,0.86,2.47,0.86
			c0.42,0,0.81-0.05,1.19-0.15c0.38-0.1,0.74-0.23,1.1-0.38v-1.17h-0.06c-0.19,0.17-0.5,0.34-0.94,0.51
			c-0.44,0.17-0.87,0.26-1.31,0.26c-0.33,0-0.63-0.04-0.9-0.14s-0.51-0.23-0.7-0.41c-0.2-0.18-0.37-0.42-0.48-0.71
			c-0.12-0.29-0.18-0.63-0.18-1.02h4.69V35.82z M52.6,35.34c0-0.78-0.18-1.37-0.54-1.79c-0.36-0.41-0.89-0.62-1.57-0.62
			c-0.38,0-0.74,0.08-1.1,0.23c-0.35,0.15-0.7,0.37-1.04,0.65V30.6h-1.07v8.86h1.07v-4.75c0.29-0.23,0.6-0.41,0.92-0.55
			c0.32-0.15,0.63-0.22,0.92-0.22c0.29,0,0.52,0.04,0.7,0.12c0.18,0.08,0.32,0.2,0.41,0.36c0.09,0.15,0.15,0.34,0.19,0.6
			s0.05,0.53,0.05,0.82v3.62h1.07V35.34z M46.22,38.45h-0.06c-0.08,0.03-0.22,0.08-0.41,0.13c-0.19,0.05-0.37,0.08-0.55,0.08
			c-0.3,0-0.52-0.03-0.67-0.11c-0.15-0.07-0.26-0.18-0.35-0.33c-0.09-0.16-0.14-0.34-0.16-0.53c-0.02-0.19-0.02-0.45-0.02-0.78V34
			h2.21v-0.9h-2.21v-1.83h-1.07v1.83h-0.72V34h0.72v3.39c0,0.77,0.17,1.33,0.51,1.68c0.34,0.35,0.83,0.52,1.48,0.52
			c0.19,0,0.4-0.02,0.64-0.05c0.24-0.03,0.46-0.08,0.66-0.13V38.45z M39.9,38.11c-0.32,0.41-0.77,0.61-1.34,0.61
			c-0.58,0-1.03-0.21-1.35-0.62c-0.32-0.41-0.48-1.02-0.48-1.82c0-0.82,0.16-1.43,0.48-1.84c0.32-0.4,0.77-0.6,1.35-0.6
			c0.57,0,1.02,0.2,1.35,0.6c0.32,0.4,0.48,1.01,0.48,1.84C40.39,37.1,40.23,37.7,39.9,38.11 M40.69,33.83
			c-0.53-0.6-1.24-0.9-2.14-0.9c-0.9,0-1.61,0.3-2.14,0.9c-0.53,0.6-0.79,1.42-0.79,2.46c0,1.04,0.26,1.86,0.79,2.46
			c0.53,0.6,1.24,0.9,2.14,0.9c0.89,0,1.61-0.3,2.14-0.9c0.53-0.6,0.8-1.42,0.8-2.46C41.49,35.25,41.23,34.43,40.69,33.83
			 M33.03,38.03c-0.34,0.4-0.8,0.6-1.4,0.6c-0.28,0-0.52-0.03-0.74-0.07c-0.22-0.05-0.48-0.14-0.78-0.28v-3.61
			c0.28-0.22,0.58-0.39,0.9-0.53c0.31-0.13,0.62-0.2,0.93-0.2c0.54,0,0.95,0.19,1.21,0.57c0.26,0.38,0.39,0.95,0.39,1.72
			C33.53,37.03,33.36,37.62,33.03,38.03 M33.99,33.8c-0.43-0.58-1.02-0.87-1.79-0.87c-0.4,0-0.78,0.08-1.14,0.24
			c-0.36,0.16-0.68,0.36-0.96,0.6v-0.67h-1.07v8.71h1.07v-2.67c0.28,0.15,0.55,0.26,0.82,0.34c0.27,0.07,0.57,0.11,0.9,0.11
			c0.38,0,0.74-0.08,1.08-0.23c0.34-0.15,0.64-0.37,0.88-0.65c0.27-0.3,0.48-0.66,0.63-1.09c0.15-0.42,0.22-0.9,0.22-1.42
			C34.64,35.18,34.42,34.38,33.99,33.8 M22.7,36.14l1.49-4.17l1.49,4.17H22.7z M24.98,30.99h-1.5l-3.09,8.48h1.15l0.83-2.36h3.67
			l0.83,2.36h1.2L24.98,30.99z M12.28,35.58c0.05-0.5,0.24-0.92,0.58-1.26c0.34-0.34,0.8-0.51,1.37-0.51c0.57,0,0.99,0.15,1.27,0.46
			c0.28,0.31,0.42,0.74,0.43,1.3H12.28z M16.97,35.82c0-0.92-0.23-1.64-0.7-2.14c-0.46-0.5-1.13-0.75-1.98-0.75
			c-0.93,0-1.68,0.3-2.24,0.92c-0.57,0.61-0.85,1.44-0.85,2.48c0,1.05,0.3,1.86,0.89,2.44c0.59,0.57,1.42,0.86,2.47,0.86
			c0.41,0,0.81-0.05,1.18-0.15c0.37-0.1,0.74-0.23,1.11-0.38v-1.17h-0.06c-0.19,0.17-0.5,0.34-0.94,0.51
			c-0.44,0.17-0.87,0.26-1.31,0.26c-0.33,0-0.63-0.04-0.9-0.14s-0.51-0.23-0.7-0.41c-0.21-0.18-0.37-0.42-0.49-0.71
			c-0.12-0.29-0.18-0.63-0.18-1.02h4.69V35.82z M9.75,33.11H8.68v6.36h1.07V33.11z M9.82,30.93H8.62v1.11h1.21V30.93z M5.67,36.87
			c-0.21,0.44-0.53,0.79-0.95,1.07c-0.34,0.22-0.71,0.36-1.11,0.44c-0.41,0.08-0.88,0.12-1.42,0.12H1.13v-6.54h1.06
			c0.53,0,0.97,0.03,1.35,0.11c0.37,0.07,0.73,0.21,1.06,0.4c0.46,0.26,0.81,0.62,1.04,1.08c0.23,0.46,0.35,1.02,0.35,1.68
			C5.99,35.88,5.89,36.43,5.67,36.87 M6.69,33.1c-0.32-0.6-0.77-1.08-1.35-1.44C5,31.45,4.58,31.28,4.1,31.16
			c-0.49-0.12-1.15-0.18-1.97-0.18H0v8.48h2.14c0.78,0,1.41-0.05,1.88-0.16c0.48-0.1,0.91-0.28,1.3-0.52
			c0.56-0.35,1.01-0.83,1.34-1.46c0.34-0.63,0.5-1.33,0.5-2.1C7.17,34.41,7.01,33.7,6.69,33.1"/>
		<path class="st1" d="M123.13,17.97l3.1-10.75h2.34c1.62,0,4.5,0,3.07,5.31c-1.46,5.45-4.52,5.45-6.14,5.45 M141.13,12.6
			c3.25-11.34-5.68-11.7-10.56-11.69h-12.15l-6.71,23.41h12.09C128.71,24.31,137.88,23.93,141.13,12.6"/>
		<polyline class="st1" points="94.33,0.9 87.62,24.31 109.86,24.31 111.69,17.97 99.11,17.97 99.88,15.32 110.72,15.32 
			112.23,10.04 101.4,10.04 102.19,7.22 114.75,7.22 116.57,0.9 		"/>
		<polyline class="st1" points="71.45,15.32 66.23,24.31 58.67,24.31 57.59,0.9 66.74,0.9 67.16,10.04 72.56,0.9 78.25,0.9 
			78.68,10.04 84.08,0.9 93.44,0.9 79.49,24.31 71.57,24.31 		"/>
		<path class="st1" d="M37.22,12.52c1.55-5.29,4.67-5.3,6.29-5.3c1.63,0,4.51,0,3.01,5.3c-1.54,5.45-4.57,5.46-6.19,5.46
			C38.7,17.97,35.6,17.97,37.22,12.52 M28.15,12.55c-3.48,12.15,4.89,12.55,10.13,12.55c5.24,0,13.84-0.39,17.32-12.55
			C59.1,0.4,50.72,0,45.48,0C40.24,0,31.64,0.4,28.15,12.55"/>
		<polyline class="st1" points="18.7,10.04 15.06,0.91 6.7,0.9 0,24.31 9.24,24.31 11.82,15.32 15.43,24.31 23.12,24.31 29.83,0.9 
			21.32,0.9 		"/>
		<path class="st1" d="M156.1,7.31l-4.73,8.01h4.73 M164.13,0.9l1.22,23.41h-9.1l-0.07-2.73h-8.46l-1.61,2.73h-9.43L150.62,0.9
			H164.13z"/>
	</g>
</g>
</svg>
