<svg width="234" height="38" viewBox="0 0 234 38" fill="none" xmlns="http://www.w3.org/2000/svg">
<path d="M106.447 3.52918C107.024 4.18404 107.354 4.92077 107.354 5.6575C107.354 7.37652 105.869 8.76812 104.138 8.76812C102.406 8.76812 100.84 7.37652 100.84 5.6575C100.84 3.93847 101.17 4.10219 101.829 3.52918C102.489 2.87431 103.231 2.54688 104.138 2.54688C105.045 2.54688 105.787 2.87431 106.447 3.52918Z" fill="white"/>
<path d="M87.8958 4.51148C88.0607 4.10218 88.3081 3.77475 88.6379 3.52918C88.9677 3.20174 89.2975 2.95617 89.6273 2.79245C90.0396 2.62873 90.4518 2.54688 90.9465 2.54688C91.8535 2.54688 92.5956 2.87431 93.2552 3.52918C93.9148 4.18404 94.2446 4.92077 94.2446 5.6575C94.2446 6.39422 93.9148 7.21281 93.2552 7.78581C92.678 8.44068 91.8535 8.76812 90.9465 8.76812C90.0395 8.76812 90.0396 8.68626 89.6273 8.52254C89.215 8.35882 88.8852 8.11325 88.6379 7.86767C88.0607 7.29466 87.6484 6.47608 87.6484 5.6575C87.6484 4.83891 87.7309 4.83891 87.8958 4.42962L87.8958 4.51148Z" fill="white"/>
<path d="M86.4933 12.3697C87.0705 11.8786 87.8126 11.7148 88.802 11.7148C89.7914 11.7148 89.9564 11.7148 90.4511 11.9604C90.8633 12.0423 91.1931 12.206 91.6054 12.2879V24.8941C91.6054 27.0224 92.1001 28.5777 93.0895 29.6418C94.079 30.706 95.5631 31.1971 97.542 31.1971C99.5208 31.1971 101.087 30.6241 101.994 29.6418C102.984 28.5777 103.479 27.0224 103.479 24.894V14.4162C103.479 13.5157 103.726 12.779 104.303 12.3697C104.88 11.8786 105.622 11.7148 106.529 11.7148C107.436 11.7148 107.684 11.7148 108.178 11.9604C108.591 12.0423 108.92 12.206 109.333 12.2879V26.0401C109.333 27.6772 109.003 29.1507 108.426 30.4604C107.849 31.7702 107.024 32.8343 105.952 33.7348C104.88 34.6352 103.643 35.3719 102.242 35.7812C100.758 36.1905 99.191 36.4361 97.4595 36.4361C95.728 36.4361 94.1614 36.1905 92.6773 35.7812C91.1931 35.2901 89.9563 34.6352 88.8845 33.7348C87.8126 32.8343 86.988 31.6883 86.4109 30.4604C85.8337 29.1507 85.5039 27.6772 85.5039 26.0401V14.4162C85.5039 13.5157 85.7513 12.779 86.3284 12.3697L86.4933 12.3697Z" fill="white"/>
<path d="M3.79281 30.1335C4.36998 30.3791 5.0296 30.6247 5.85412 30.9521C7.91543 31.5251 10.0592 31.8526 12.203 31.8526C14.3467 31.8526 15.1712 31.6889 16.1607 31.2796C17.1501 30.8703 17.5624 30.2154 17.5624 29.315C17.5624 28.4145 17.2326 27.9234 16.6554 27.5141C16.0782 27.1048 14.9239 26.7774 13.1924 26.5318L9.48203 26.1225C8.16279 25.9588 7.00845 25.7951 5.93657 25.4676C4.86469 25.1402 3.95771 24.649 3.13319 24.076C2.30867 23.503 1.7315 22.7663 1.23678 21.9477C0.824522 21.0473 0.577164 19.9831 0.577164 18.8371C0.577164 17.6911 0.742069 16.7906 1.15433 15.8902C1.56659 14.9079 2.22621 14.0893 3.13319 13.3526C4.04017 12.6159 5.1945 12.1247 6.51374 11.7154C7.91543 11.3061 9.64693 11.0605 11.6258 11.0605C14.9239 11.0605 17.5624 11.388 19.3763 12.1247C21.2727 12.8614 22.2621 13.8437 22.2621 15.1535C22.2621 16.4632 22.1797 15.9721 22.0148 16.2995C21.8499 16.6269 21.685 16.8725 21.5201 17.1181C21.3552 17.3636 21.1903 17.5274 20.9429 17.6911C20.6956 17.8548 20.5306 17.9367 20.2833 18.0185C20.0359 17.7729 19.7061 17.6092 19.3763 17.3636C18.9641 17.1181 18.3869 16.7906 17.7273 16.5451C16.9852 16.2995 16.1607 16.0539 15.1712 15.8083C14.1818 15.5628 13.0275 15.4809 11.7082 15.4809C7.99788 15.4809 6.43129 16.4632 6.43129 18.1004C6.43129 19.7375 6.7611 19.4101 7.33826 19.8194C7.99788 20.2287 8.98731 20.4743 10.2241 20.638L15.0888 21.2928C17.7273 21.6203 19.871 22.357 21.3552 23.503C22.9218 24.649 23.6638 26.2862 23.6638 28.4964C23.6638 30.7066 22.6744 32.9167 20.6956 34.3902C18.7991 35.8636 15.9958 36.6004 12.3679 36.6004C8.73995 36.6004 6.67865 36.1911 3.95772 35.3725C2.80338 34.9632 0.989429 34.3083 0 33.4897L2.30867 29.4787C2.72093 29.8061 3.21564 29.9698 3.71036 30.2154L3.79281 30.1335Z" fill="white"/>
<path d="M48.1522 34.963C47.575 35.2086 46.9978 35.4542 46.2558 35.6998C45.5137 35.9453 44.6892 36.109 43.7822 36.2728C42.8752 36.4365 41.8858 36.5183 40.7314 36.5183C38.9175 36.5183 37.2684 36.2728 35.6194 35.6998C34.0528 35.1268 32.6511 34.39 31.4143 33.3259C30.1775 32.2617 29.2706 30.8701 28.5285 29.3148C27.8689 27.7595 27.5391 25.9586 27.5391 23.9121C27.5391 20.3104 28.6934 16.8723 31.4143 14.3347C32.6511 13.2706 34.0528 12.452 35.6194 11.879C37.2684 11.3059 38.9999 10.9785 40.8964 10.9785C42.7928 10.9785 43.7822 11.1422 44.9365 11.3878C46.0909 11.6334 46.9978 11.9608 47.6575 12.3701C48.3995 12.7794 48.8942 13.1887 49.2241 13.7617C49.5539 14.2529 49.7188 14.744 49.7188 15.317C49.7188 15.89 49.4714 16.6267 48.9767 17.1998C48.5644 17.7728 48.1522 18.1821 47.575 18.5914C46.8329 17.8546 46.0084 17.4453 45.019 16.9542C43.9471 16.463 42.7103 16.2175 41.1437 16.2175C39.5771 16.2175 39.0824 16.3812 38.1754 16.7086C36.279 17.3635 35.0422 18.6732 34.3002 20.4741C33.9704 21.3745 33.723 22.5206 33.723 23.7484C33.723 27.1046 35.0422 29.806 38.4228 30.8701C39.3298 31.1157 40.3192 31.2794 41.4735 31.2794C43.0401 31.2794 44.2769 31.1157 45.1839 30.7064C45.926 30.379 46.668 30.0515 47.3277 29.5604L49.8837 33.9807C49.389 34.3082 48.8118 34.6356 48.2346 34.963L48.1522 34.963Z" fill="white"/>
<path d="M56.2308 1.2369C56.8079 0.745747 57.55 0.582031 58.5394 0.582031C59.5289 0.582031 59.6938 0.582031 60.1885 0.827606C60.6007 0.909465 60.9306 0.991323 61.3428 1.15504V13.6794C63.4041 11.6329 66.0426 10.8962 68.9284 10.8962C71.8143 10.8962 71.7318 11.1418 72.9686 11.5511C74.2054 11.9603 75.3597 12.6152 76.2667 13.4338C77.1737 14.2524 77.9157 15.2347 78.4105 16.4626C78.9052 17.6904 79.1525 19.1639 79.1525 20.7192V35.7811H73.216V22.3564C73.216 20.3099 72.8037 18.7546 71.8967 17.7723C71.0722 16.79 69.6705 16.217 67.6092 16.217C65.5479 16.217 63.8988 16.8718 62.9094 18.0179C61.8375 19.1639 61.3428 20.8011 61.3428 22.7657V35.6993H55.4062V3.28336C55.4062 2.38292 55.6536 1.64619 56.2308 1.2369Z" fill="white"/>
<path d="M117.66 1.15487C118.238 0.663716 118.98 0.5 119.969 0.5C120.959 0.5 121.123 0.5 121.618 0.745575C122.03 0.827433 122.36 0.991149 122.773 1.07301V35.8628H116.836V3.20133C116.836 2.30088 117.083 1.56416 117.66 1.15487Z" fill="white"/>
<path d="M131.43 1.15487C132.007 0.663716 132.749 0.5 133.738 0.5C134.728 0.5 134.893 0.5 135.387 0.745575C135.8 0.827433 136.129 0.991149 136.542 1.07301V20.146C136.871 19.9004 137.366 19.573 137.861 19.1637C138.603 18.5907 139.427 18.0177 140.417 17.281C141.324 16.6261 142.313 15.8894 143.303 15.2345C144.292 14.4978 145.199 13.8429 146.106 13.1881C146.848 12.6969 147.425 12.2876 148.085 12.042C148.662 11.7146 149.487 11.6327 150.394 11.6327C151.301 11.6327 152.043 11.8783 152.702 12.3695C153.279 12.7788 153.692 13.1062 154.022 13.7611C153.115 14.5796 152.125 15.3982 151.136 16.135C149.981 16.9535 148.827 17.854 147.59 18.7544L144.127 21.1283C143.22 21.7013 142.561 22.1925 142.066 22.5199C144.704 24.4845 147.096 26.531 149.239 28.823C151.465 31.1151 153.279 33.2434 155.176 35.781H147.838C147.013 34.7987 146.189 33.8982 145.282 32.9978C144.375 32.0155 143.468 31.115 142.396 30.1327C141.406 29.2323 140.334 28.3319 139.263 27.4314C138.356 26.6947 137.449 25.958 136.624 25.3031V35.781H130.688V3.20133C130.688 2.30088 130.935 1.56416 131.512 1.15487H131.43Z" fill="white"/>
<path d="M178.098 34.7995C177.521 35.1269 176.861 35.3725 176.036 35.6181C175.212 35.8636 174.305 36.1092 173.233 36.2729C172.161 36.4367 171.007 36.6004 169.688 36.6004C168.368 36.6004 166.225 36.3548 164.576 35.7818C163.009 35.2088 161.607 34.3902 160.453 33.326C159.299 32.2619 158.392 30.8703 157.65 29.3968C156.99 27.8415 156.66 26.0406 156.66 23.9942C156.66 21.9477 156.99 20.3105 157.65 18.7552C158.309 17.1181 159.216 15.8083 160.453 14.6623C161.69 13.5163 163.009 12.6159 164.658 12.0428C166.307 11.388 168.039 11.0605 169.935 11.0605C171.831 11.0605 173.068 11.3061 174.387 11.7154C175.707 12.1247 176.779 12.6977 177.686 13.4344C178.592 14.1712 179.252 14.9898 179.747 15.972C180.242 16.9543 180.406 18.0185 180.406 19.0827C180.406 20.1468 180.159 21.2928 179.747 22.1933C179.335 23.0937 178.51 23.9123 177.438 24.649C176.366 25.3039 174.882 25.7951 173.151 26.2044C171.337 26.5318 169.11 26.6955 166.307 26.6955H163.009C163.256 28.0052 163.998 29.1513 165.235 30.1336C166.472 31.034 168.368 31.5251 170.759 31.5251C173.151 31.5251 172.326 31.5251 172.986 31.3614C173.645 31.1977 174.305 31.1159 174.8 30.8703C175.377 30.7066 175.789 30.461 176.201 30.2973L177.356 29.8061L179.582 33.9809C179.087 34.2265 178.675 34.5539 178.18 34.7995L178.098 34.7995ZM164.493 22.5207H166.472C168.203 22.5207 169.605 22.4389 170.677 22.1933C171.749 21.9477 173.728 21.4566 174.223 20.3105C174.387 19.9013 174.47 19.492 174.47 19.0008C174.47 17.8548 173.975 17.0362 173.068 16.5451C172.161 15.972 171.007 15.6446 169.605 15.6446C167.626 15.6446 165.812 16.2995 164.411 17.8548C163.834 18.5097 163.339 19.2464 163.009 20.065C162.762 20.8836 162.597 21.6203 162.514 22.4389C163.174 22.4389 163.751 22.4389 164.328 22.4389L164.493 22.5207Z" fill="white"/>
<path d="M216.273 18.6733V10.8968C216.273 9.91446 217.016 9.17773 218.005 9.17773H221.385C222.292 9.17773 223.117 9.91446 223.117 10.8968V19.9012H232.269C233.259 19.9012 234.001 20.6379 234.001 21.6202V24.9764C234.001 25.8768 233.259 26.6954 232.269 26.6954H223.117V35.7817C223.117 36.6822 222.375 37.5007 221.385 37.5007H218.005C217.016 37.5007 216.273 36.764 216.273 35.7817V27.9233L219.489 24.7308C220.231 23.9122 220.231 22.6844 219.489 21.8658L216.273 18.6733Z" fill="white"/>
<path d="M211.902 22.2743L209.923 20.3097C209.758 20.146 209.593 19.9822 209.263 19.9004C209.098 19.9004 208.933 19.9004 208.686 19.9004H200.028C199.039 19.9004 198.297 20.6371 198.297 21.6194V24.9756C198.297 25.8761 199.039 26.6946 200.028 26.6946H208.686C208.768 26.6946 209.016 26.6946 209.263 26.6946C209.51 26.6128 209.675 26.5309 209.923 26.2853L211.902 24.3207C212.479 23.7477 212.479 22.9291 211.902 22.3561V22.2743Z" fill="white"/>
</svg>

